<svg width="22" height="22" viewBox="0 0 22 22" fill="none" xmlns="http://www.w3.org/2000/svg">
<path d="M14 21.7501H8C2.57 21.7501 0.25 19.4301 0.25 14.0001V8.00012C0.25 2.57012 2.57 0.250122 8 0.250122H14C19.43 0.250122 21.75 2.57012 21.75 8.00012V14.0001C21.75 19.4301 19.43 21.7501 14 21.7501ZM8 1.75012C3.39 1.75012 1.75 3.39012 1.75 8.00012V14.0001C1.75 18.6101 3.39 20.2501 8 20.2501H14C18.61 20.2501 20.25 18.6101 20.25 14.0001V8.00012C20.25 3.39012 18.61 1.75012 14 1.75012H8Z" fill="#9197B3"/>
<path d="M11.0001 12.0801C10.8668 12.0811 10.7356 12.0466 10.6201 11.9801L5.32011 8.92013C5.16995 8.81093 5.06564 8.64991 5.02735 8.46823C4.98906 8.28655 5.01953 8.09712 5.11285 7.93661C5.20617 7.7761 5.35572 7.65588 5.53255 7.59927C5.70937 7.54265 5.90092 7.55366 6.07011 7.63012L11.0001 10.4801L15.8901 7.65011C16.0595 7.55788 16.258 7.53449 16.4442 7.58477C16.6304 7.63505 16.7901 7.75516 16.8901 7.92013C16.9799 8.09006 17.0019 8.28768 16.9518 8.47323C16.9018 8.65878 16.7832 8.81847 16.6201 8.92013L11.3601 11.9201C11.2555 12.003 11.1317 12.058 11.0001 12.0801Z" fill="#9197B3"/>
<path d="M11 14.4601C10.8019 14.4575 10.6126 14.3777 10.4725 14.2376C10.3324 14.0975 10.2526 13.9082 10.25 13.7101V8.27011C10.25 8.0712 10.329 7.88046 10.4697 7.73981C10.6103 7.59915 10.8011 7.52011 11 7.52011C11.1989 7.52011 11.3897 7.59915 11.5303 7.73981C11.671 7.88046 11.75 8.0712 11.75 8.27011V13.7101C11.7474 13.9082 11.6676 14.0975 11.5275 14.2376C11.3874 14.3777 11.1981 14.4575 11 14.4601Z" fill="#9197B3"/>
<path d="M11.0002 17.7501C10.4406 17.7571 9.88772 17.6266 9.39023 17.3701L6.19023 15.5901C5.69113 15.2828 5.2751 14.8577 4.97869 14.3521C4.68228 13.8464 4.51455 13.2757 4.49023 12.6901V9.30011C4.51963 8.71568 4.68948 8.14695 4.98542 7.64212C5.28135 7.13729 5.69463 6.71126 6.19023 6.40012L9.39023 4.62012C9.88967 4.36865 10.4411 4.23767 11.0002 4.23767C11.5594 4.23767 12.1108 4.36865 12.6102 4.62012L15.8102 6.40012C16.3093 6.7074 16.7254 7.13254 17.0218 7.63818C17.3182 8.14383 17.4859 8.7145 17.5102 9.30011V12.6901C17.4808 13.2746 17.311 13.8433 17.015 14.3481C16.7191 14.8529 16.3058 15.279 15.8102 15.5901L12.6102 17.3701C12.1145 17.6314 11.5605 17.7622 11.0002 17.7501ZM11.0002 5.75012C10.6957 5.73961 10.3933 5.8049 10.1202 5.94012L6.92023 7.72012C6.65718 7.89656 6.43768 8.13046 6.2783 8.40417C6.11892 8.67789 6.02383 8.98425 6.00023 9.30011V12.6901C6.0235 13.0072 6.11949 13.3147 6.28077 13.5887C6.44205 13.8627 6.66429 14.0959 6.93023 14.2701L10.1302 16.0501C10.4058 16.1788 10.7061 16.2455 11.0102 16.2455C11.3143 16.2455 11.6147 16.1788 11.8902 16.0501L15.0902 14.2701C15.3551 14.0948 15.5766 13.8613 15.7377 13.5876C15.8989 13.3138 15.9955 13.0068 16.0202 12.6901V9.30011C15.997 8.98301 15.901 8.67556 15.7397 8.40155C15.5784 8.12755 15.3562 7.89437 15.0902 7.72012L11.8902 5.94012C11.6142 5.80327 11.3081 5.73793 11.0002 5.75012Z" fill="#9197B3"/>
</svg>
