<svg width="22" height="22" viewBox="0 0 22 22" fill="none" xmlns="http://www.w3.org/2000/svg">
<path d="M14 1.00012H8C3 1.00012 1 3.00012 1 8.00012V14.0001C1 17.7801 2.14 19.8501 4.86 20.6201C5.08 18.0001 7.75 16.0001 11 16.0001C14.25 16.0001 16.92 18.0001 17.14 20.6501C19.86 19.8801 21 17.8101 21 14.0301V8.03012C21 3.00012 19 1.00012 14 1.00012ZM11 13.1701C10.2895 13.1721 9.59447 12.9632 9.00278 12.57C8.4111 12.1767 7.9494 11.6167 7.67615 10.9609C7.4029 10.3051 7.33038 9.58294 7.46777 8.88589C7.60516 8.18885 7.94628 7.54824 8.44795 7.04517C8.94962 6.54209 9.58927 6.19918 10.2859 6.05984C10.9826 5.92051 11.7049 5.99103 12.3615 6.26245C13.0181 6.53387 13.5794 6.99401 13.9743 7.58459C14.3692 8.17518 14.58 8.86965 14.58 9.58011C14.5813 10.0511 14.4897 10.5177 14.3104 10.9532C14.131 11.3887 13.8675 11.7845 13.535 12.118C13.2024 12.4515 12.8073 12.7161 12.3723 12.8967C11.9373 13.0772 11.471 13.1701 11 13.1701V13.1701Z" stroke="#9197B3" stroke-width="1.5" stroke-linecap="round" stroke-linejoin="round"/>
</svg>
