<svg width="24" height="25" viewBox="0 0 24 25" fill="none" xmlns="http://www.w3.org/2000/svg">
<path d="M12.9399 7.64996C12.9399 7.43249 12.8536 7.22391 12.6998 7.07013C12.546 6.91635 12.3374 6.82996 12.12 6.82996C11.9025 6.82996 11.6939 6.91635 11.5401 7.07013C11.3864 7.22391 11.3 7.43249 11.3 7.64996V7.90991H11C10.3519 7.92305 9.73545 8.19248 9.28562 8.65918C8.83579 9.12588 8.58923 9.75186 8.59995 10.4C8.55117 10.9236 8.68902 11.4475 8.98911 11.8793C9.2892 12.3112 9.73222 12.6231 10.24 12.7599L11.3299 13.15V15.58H11.24C10.9623 15.5644 10.7019 15.4404 10.5149 15.2346C10.3278 15.0288 10.229 14.7578 10.24 14.4799C10.24 14.2624 10.1536 14.0539 9.99985 13.9001C9.84607 13.7463 9.63749 13.6599 9.42002 13.6599C9.20254 13.6599 8.99396 13.7463 8.84018 13.9001C8.6864 14.0539 8.59995 14.2624 8.59995 14.4799C8.58921 15.1926 8.86076 15.8807 9.35532 16.394C9.84988 16.9073 10.5274 17.2042 11.24 17.2199H11.3299V17.4899C11.3299 17.7074 11.4164 17.916 11.5702 18.0698C11.7239 18.2235 11.9325 18.3099 12.15 18.3099C12.3675 18.3099 12.5761 18.2235 12.7298 18.0698C12.8836 17.916 12.9699 17.7074 12.9699 17.4899V17.2199H13.3C13.9507 17.2068 14.5696 16.9363 15.0213 16.4678C15.473 15.9992 15.7206 15.3707 15.7099 14.7199C15.7587 14.1963 15.621 13.6724 15.3209 13.2405C15.0208 12.8087 14.5777 12.4968 14.0699 12.3599L12.9699 11.9799V9.54993H13.06C13.3368 9.56291 13.5972 9.6848 13.7845 9.88898C13.9718 10.0932 14.0709 10.3631 14.06 10.64C14.06 10.8574 14.1464 11.066 14.3001 11.2198C14.4539 11.3736 14.6625 11.46 14.88 11.46C15.0975 11.46 15.306 11.3736 15.4598 11.2198C15.6136 11.066 15.6999 10.8574 15.6999 10.64C15.708 9.92727 15.4339 9.24029 14.9375 8.72888C14.441 8.21747 13.7626 7.92307 13.05 7.90991H12.9599L12.9399 7.64996ZM13.5 13.9099C13.87 14.0399 14.04 14.1299 14.04 14.7199C14.0509 14.9358 13.9761 15.1474 13.8319 15.3084C13.6877 15.4695 13.4858 15.5671 13.27 15.58H12.9399V13.7199L13.5 13.9099ZM11.3 11.4099L10.74 11.21C10.37 11.08 10.2099 10.99 10.2099 10.4C10.199 10.1867 10.2728 9.97772 10.4151 9.81854C10.5575 9.65936 10.7568 9.56283 10.9699 9.54993H11.3V11.4099Z" fill="#00AC4F"/>
<path d="M23.0601 11.7499C22.9524 11.7499 22.8457 11.7712 22.7462 11.8124C22.6468 11.8536 22.5564 11.914 22.4802 11.9901C22.4041 12.0663 22.3436 12.1567 22.3024 12.2562C22.2612 12.3557 22.24 12.4623 22.24 12.5699C22.24 14.5715 21.6464 16.5281 20.5344 18.1923C19.4224 19.8565 17.842 21.1537 15.9928 21.9196C14.1436 22.6856 12.1087 22.886 10.1457 22.4955C8.18257 22.105 6.37944 21.1411 4.96414 19.7258C3.54883 18.3105 2.58496 16.5073 2.19448 14.5443C1.804 12.5812 2.00445 10.5464 2.77041 8.6972C3.53637 6.84802 4.83348 5.26746 6.4977 4.15546C8.16193 3.04346 10.1185 2.44995 12.12 2.44995C12.3375 2.44995 12.5461 2.36356 12.6999 2.20978C12.8536 2.056 12.94 1.84742 12.94 1.62994C12.94 1.41247 12.8536 1.20389 12.6999 1.05011C12.5461 0.89633 12.3375 0.809937 12.12 0.809937C9.79411 0.809937 7.52049 1.49966 5.58657 2.79187C3.65265 4.08408 2.14524 5.92072 1.25515 8.06958C0.365064 10.2184 0.132199 12.583 0.585961 14.8642C1.03972 17.1454 2.1598 19.2408 3.80447 20.8855C5.44913 22.5302 7.54449 23.6502 9.82571 24.104C12.1069 24.5578 14.4715 24.3248 16.6204 23.4348C18.7692 22.5447 20.6059 21.0374 21.8981 19.1035C23.1903 17.1695 23.88 14.8959 23.88 12.5699C23.88 12.4623 23.8589 12.3557 23.8177 12.2562C23.7764 12.1567 23.7159 12.0663 23.6398 11.9901C23.5637 11.914 23.4733 11.8536 23.3738 11.8124C23.2743 11.7712 23.1678 11.7499 23.0601 11.7499Z" fill="#00AC4F"/>
<path d="M16.8399 7.40991C16.838 7.43321 16.838 7.45662 16.8399 7.47992C16.8738 7.5523 16.9175 7.61963 16.9699 7.67993C17.125 7.83187 17.3329 7.91788 17.55 7.91992H22C22.2174 7.91992 22.426 7.83353 22.5798 7.67975C22.7336 7.52597 22.8199 7.31739 22.8199 7.09991C22.8199 6.88244 22.7336 6.67392 22.5798 6.52014C22.426 6.36636 22.2174 6.27997 22 6.27997H19.5999L23.67 2.20996C23.8238 2.05614 23.9102 1.84749 23.9102 1.62994C23.9102 1.4124 23.8238 1.20375 23.67 1.04993C23.5162 0.896101 23.3075 0.809692 23.0899 0.809692C22.8724 0.809692 22.6638 0.896101 22.51 1.04993L18.4399 5.11993V2.71991C18.4399 2.50243 18.3536 2.29392 18.1998 2.14014C18.046 1.98636 17.8374 1.89996 17.62 1.89996C17.4025 1.89996 17.1939 1.98636 17.0401 2.14014C16.8864 2.29392 16.8 2.50243 16.8 2.71991V7.09991C16.7953 7.14646 16.7953 7.19338 16.8 7.23993C16.8026 7.2986 16.8161 7.35624 16.8399 7.40991Z" fill="#00AC4F"/>
</svg>
