<svg width="22" height="22" viewBox="0 0 22 22" fill="none" xmlns="http://www.w3.org/2000/svg">
<path d="M7.00008 21.3201C6.71034 21.3195 6.42524 21.2473 6.17007 21.1101C5.89132 20.9612 5.65841 20.7391 5.49632 20.4678C5.33424 20.1965 5.24911 19.8862 5.25008 19.5701V18.1501C3.83213 18.05 2.51114 17.3937 1.57469 16.3243C0.638238 15.2549 0.162152 13.8589 0.250075 12.4401V6.44011C0.204974 5.67322 0.322806 4.90548 0.595817 4.18742C0.868827 3.46936 1.29082 2.81724 1.83403 2.27403C2.37723 1.73083 3.02933 1.30888 3.74739 1.03587C4.46545 0.762861 5.23319 0.645006 6.00008 0.690108H16.0001C16.767 0.645006 17.5347 0.762861 18.2528 1.03587C18.9708 1.30888 19.6229 1.73083 20.1661 2.27403C20.7093 2.81724 21.1313 3.46936 21.4043 4.18742C21.6773 4.90548 21.7952 5.67322 21.7501 6.44011V12.4401C21.7952 13.207 21.6773 13.9747 21.4043 14.6928C21.1313 15.4109 20.7093 16.0629 20.1661 16.6061C19.6229 17.1493 18.9708 17.5713 18.2528 17.8443C17.5347 18.1174 16.767 18.2352 16.0001 18.1901H12.2301L8.00008 21.0001C7.7065 21.2049 7.358 21.3164 7.00008 21.3201ZM6.00008 2.1801C5.43243 2.14336 4.86348 2.22811 4.33119 2.42869C3.79891 2.62928 3.31552 2.94108 2.9133 3.34331C2.51107 3.74553 2.19926 4.22892 1.99868 4.76121C1.79809 5.2935 1.71334 5.86246 1.75008 6.4301V12.4301C1.71334 12.9977 1.79809 13.5667 1.99868 14.099C2.19926 14.6313 2.51107 15.1147 2.9133 15.5169C3.31552 15.9191 3.79891 16.2309 4.33119 16.4315C4.86348 16.6321 5.43243 16.7168 6.00008 16.6801C6.19818 16.6827 6.38745 16.7625 6.52754 16.9026C6.66764 17.0427 6.74749 17.232 6.75008 17.4301V19.5601C6.74955 19.6057 6.76152 19.6506 6.78469 19.6899C6.80787 19.7292 6.84136 19.7615 6.88153 19.7831C6.92171 19.8048 6.96704 19.815 7.01262 19.8127C7.05819 19.8104 7.10227 19.7957 7.14007 19.7701L11.5901 16.7701C11.7145 16.6869 11.8604 16.6417 12.0101 16.6401H16.0101C16.5777 16.6769 17.1467 16.5921 17.679 16.3915C18.2112 16.1909 18.6946 15.8791 19.0969 15.4769C19.4991 15.0747 19.8109 14.5913 20.0115 14.059C20.2121 13.5267 20.2968 12.9578 20.2601 12.3901V6.39012C20.291 5.82483 20.2017 5.25936 19.9979 4.73118C19.794 4.20301 19.4804 3.72411 19.0778 3.32616C18.6751 2.9282 18.1925 2.62028 17.662 2.42271C17.1314 2.22515 16.565 2.14245 16.0001 2.1801H6.00008Z" fill="#9197B3"/>
<path d="M11.0001 11.1101C10.802 11.1075 10.6127 11.0277 10.4726 10.8876C10.3325 10.7475 10.2527 10.5582 10.2501 10.3601V10.1501C10.2623 9.75223 10.3762 9.36407 10.581 9.02271C10.7858 8.68134 11.0747 8.39814 11.4201 8.20013C11.7901 7.95013 11.9101 7.78014 11.9101 7.52014C11.9101 7.27879 11.8142 7.04731 11.6435 6.87665C11.4729 6.70599 11.2414 6.61011 11.0001 6.61011C10.7587 6.61011 10.5273 6.70599 10.3566 6.87665C10.186 7.04731 10.0901 7.27879 10.0901 7.52014C10.0901 7.71905 10.0111 7.90982 9.87041 8.05048C9.72975 8.19113 9.53899 8.27014 9.34008 8.27014C9.14116 8.27014 8.9504 8.19113 8.80975 8.05048C8.66909 7.90982 8.59008 7.71905 8.59008 7.52014C8.59008 6.88097 8.84399 6.26794 9.29595 5.81598C9.74791 5.36402 10.3609 5.11011 11.0001 5.11011C11.6392 5.11011 12.2522 5.36402 12.7042 5.81598C13.1562 6.26794 13.4101 6.88097 13.4101 7.52014C13.3987 7.91183 13.287 8.29402 13.0856 8.63019C12.8843 8.96635 12.6 9.24522 12.2601 9.44012C11.8701 9.70012 11.7501 9.87015 11.7501 10.1501V10.3601C11.7501 10.559 11.6711 10.7498 11.5304 10.8904C11.3898 11.0311 11.199 11.1101 11.0001 11.1101Z" fill="#9197B3"/>
<path d="M11.0001 13.6001C10.8517 13.6001 10.7067 13.5561 10.5834 13.4737C10.4601 13.3913 10.3639 13.2742 10.3072 13.1372C10.2504 13.0001 10.2355 12.8493 10.2645 12.7038C10.2934 12.5583 10.3649 12.4247 10.4697 12.3198C10.5746 12.2149 10.7083 12.1435 10.8538 12.1146C10.9992 12.0856 11.15 12.1005 11.2871 12.1572C11.4241 12.214 11.5413 12.3101 11.6237 12.4335C11.7061 12.5568 11.7501 12.7018 11.7501 12.8501C11.7501 13.049 11.6711 13.2398 11.5304 13.3804C11.3898 13.5211 11.199 13.6001 11.0001 13.6001Z" fill="#9197B3"/>
</svg>
