<svg width="22" height="22" viewBox="0 0 22 22" fill="none" xmlns="http://www.w3.org/2000/svg">
<path d="M8 21.1801H14C19 21.1801 21 19.1801 21 14.1801V8.18005C21 3.18005 19 1.18005 14 1.18005H8C3 1.18005 1 3.18005 1 8.18005V14.1801C1 19.1801 3 21.1801 8 21.1801Z" stroke="#9197B3" stroke-width="1.5" stroke-linecap="round" stroke-linejoin="round"/>
<path d="M15.2802 12.79C14.7411 13.3224 14.0666 13.6971 13.3297 13.8733C12.5929 14.0496 11.8218 14.0208 11.1002 13.79L8.5102 16.3701C8.40047 16.4706 8.27061 16.5467 8.12924 16.5933C7.98787 16.6398 7.83821 16.6558 7.6902 16.6401L6.49021 16.48C6.28526 16.4455 6.09616 16.348 5.94921 16.201C5.80225 16.0541 5.70473 15.865 5.6702 15.66L5.5102 14.4601C5.49872 14.3123 5.51667 14.1638 5.56302 14.023C5.60937 13.8822 5.68319 13.7521 5.7802 13.6401L8.36021 11.0601C8.14137 10.3564 8.11336 9.60728 8.27904 8.88928C8.44471 8.17127 8.79813 7.51017 9.30314 6.97357C9.80816 6.43696 10.4466 6.04414 11.1533 5.83526C11.8599 5.62638 12.6094 5.60893 13.325 5.78472C14.0406 5.96052 14.6966 6.32327 15.2261 6.83581C15.7555 7.34835 16.1392 7.99231 16.3381 8.70184C16.537 9.41136 16.5439 10.161 16.358 10.874C16.1721 11.5871 15.8002 12.2379 15.2802 12.7601V12.79Z" stroke="#9197B3" stroke-width="1.5" stroke-linecap="round" stroke-linejoin="round"/>
<path d="M9.4501 15.4601L8.6001 14.6" stroke="#9197B3" stroke-width="1.5" stroke-linecap="round" stroke-linejoin="round"/>
</svg>
