<svg width="22" height="25" viewBox="0 0 22 25" fill="none" xmlns="http://www.w3.org/2000/svg">
<path d="M20.2501 8.99994C19.2867 8.05181 18.0012 7.50191 16.6501 7.45996V6.55993C16.6479 5.75906 16.4786 4.96743 16.1532 4.23565C15.8278 3.50387 15.3533 2.84802 14.7601 2.30993C14.1695 1.76589 13.47 1.35351 12.708 1.10009C11.946 0.846676 11.1389 0.758024 10.3401 0.839963C8.91274 1.05142 7.60746 1.76437 6.6582 2.85107C5.70894 3.93777 5.17785 5.32714 5.16015 6.76996V7.45996C3.80669 7.50429 2.51886 8.05365 1.55017 8.99994C1.09933 9.58153 0.776994 10.2522 0.60461 10.9676C0.432225 11.683 0.413719 12.4268 0.550167 13.15L1.37011 19.6999C1.62011 21.9899 2.5501 24.34 7.6101 24.34H14.1702C19.1702 24.34 20.1701 21.9899 20.4001 19.6999L21.2301 13.1299C21.3658 12.4113 21.3487 11.6722 21.1798 10.9606C21.011 10.2491 20.6942 9.581 20.2501 8.99994ZM10.4901 2.47992C11.0606 2.42102 11.6371 2.48276 12.1821 2.66113C12.7272 2.8395 13.2287 3.1305 13.654 3.51526C14.0793 3.90001 14.419 4.36994 14.6509 4.89447C14.8828 5.419 15.0017 5.98642 15.0001 6.55993V7.37994H6.80017V6.77997C6.8137 5.74332 7.19037 4.7442 7.86462 3.95666C8.53887 3.16913 9.46792 2.643 10.4901 2.46991V2.47992ZM19.6101 12.96L18.7902 19.5399C18.6002 21.2799 18.1202 22.71 14.1802 22.71H7.62011C3.68011 22.71 3.20013 21.27 3.01013 19.52L2.19006 12.96C2.07925 12.4715 2.0728 11.9652 2.17102 11.4741C2.26924 10.983 2.46999 10.5181 2.76013 10.1099C3.41013 9.38992 4.68015 9.01996 6.53015 9.01996H15.2801C17.1301 9.01996 18.4002 9.38993 19.0402 10.1199C19.3363 10.531 19.5403 11.0009 19.6387 11.4979C19.737 11.9948 19.7273 12.5071 19.6101 12.9999V12.96Z" fill="#DA001A"/>
<path d="M14.6303 11.6399C14.4123 11.6399 14.1992 11.7047 14.0181 11.826C13.837 11.9474 13.696 12.1198 13.6131 12.3213C13.5301 12.5229 13.5089 12.7446 13.5521 12.9582C13.5954 13.1719 13.7013 13.3679 13.8561 13.5213C14.0109 13.6747 14.2079 13.7787 14.4219 13.82C14.6359 13.8613 14.8574 13.8381 15.0582 13.7533C15.2591 13.6685 15.43 13.5259 15.5497 13.3437C15.6694 13.1615 15.7322 12.9479 15.7302 12.7299C15.7303 12.5859 15.7018 12.4434 15.6464 12.3105C15.591 12.1776 15.5098 12.057 15.4075 11.9556C15.3052 11.8543 15.1838 11.7742 15.0504 11.72C14.917 11.6658 14.7743 11.6386 14.6303 11.6399Z" fill="#DA001A"/>
<path d="M7.00012 11.64C6.84753 11.6254 6.69355 11.6428 6.5481 11.6912C6.40265 11.7396 6.26895 11.8178 6.15552 11.9209C6.04208 12.024 5.95142 12.1497 5.8894 12.2899C5.82738 12.43 5.79541 12.5816 5.79541 12.7349C5.79541 12.8882 5.82738 13.0398 5.8894 13.18C5.95142 13.3202 6.04208 13.4459 6.15552 13.549C6.26895 13.6521 6.40265 13.7303 6.5481 13.7787C6.69355 13.8271 6.84753 13.8446 7.00012 13.83C7.27248 13.8039 7.52533 13.6773 7.70935 13.4748C7.89337 13.2723 7.99536 13.0085 7.99536 12.7349C7.99536 12.4613 7.89337 12.1976 7.70935 11.9951C7.52533 11.7926 7.27248 11.666 7.00012 11.64Z" fill="#DA001A"/>
</svg>
