<svg width="22" height="22" viewBox="0 0 22 22" fill="none" xmlns="http://www.w3.org/2000/svg">
<path d="M11.0001 21.7501C10.6912 21.7525 10.3851 21.6926 10.0999 21.574C9.81466 21.4555 9.55626 21.2807 9.34007 21.0601L7.82007 19.5401C7.64856 19.4003 7.44009 19.3134 7.22007 19.2901H5.06007C4.43681 19.2901 3.83908 19.0425 3.39837 18.6018C2.95766 18.1611 2.71006 17.5634 2.71006 16.9401V14.7802C2.68672 14.5601 2.59986 14.3516 2.46006 14.1801L0.940064 12.6601C0.721299 12.4425 0.547714 12.1839 0.429296 11.899C0.310878 11.6142 0.249967 11.3086 0.250066 11.0001C0.247728 10.6913 0.30762 10.3851 0.426168 10.0999C0.544715 9.81471 0.719487 9.55634 0.940064 9.34015L2.46006 7.82013C2.59986 7.64863 2.68672 7.44012 2.71006 7.22009V5.06012C2.71006 4.43686 2.95766 3.83915 3.39837 3.39844C3.83908 2.95773 4.43681 2.71014 5.06007 2.71014H7.22007C7.44009 2.6868 7.64856 2.59994 7.82007 2.46014L9.34007 0.940125C9.78912 0.516804 10.3829 0.281006 11.0001 0.281006C11.6172 0.281006 12.211 0.516804 12.6601 0.940125L14.1801 2.46014C14.3516 2.59994 14.56 2.6868 14.7801 2.71014H16.9401C17.5633 2.71014 18.1611 2.95773 18.6018 3.39844C19.0425 3.83915 19.2901 4.43686 19.2901 5.06012V7.22009C19.3134 7.44012 19.4003 7.64863 19.5401 7.82013L21.0601 9.34015C21.2788 9.5577 21.4524 9.81631 21.5708 10.1012C21.6893 10.3861 21.7502 10.6916 21.7501 11.0001C21.7524 11.309 21.6925 11.6151 21.574 11.9003C21.4554 12.1855 21.2806 12.4439 21.0601 12.6601L19.5401 14.1801C19.4003 14.3516 19.3134 14.5601 19.2901 14.7802V16.9401C19.2901 17.5634 19.0425 18.1611 18.6018 18.6018C18.1611 19.0425 17.5633 19.2901 16.9401 19.2901H14.7801C14.56 19.3134 14.3516 19.4003 14.1801 19.5401L12.6601 21.0601C12.4439 21.2807 12.1855 21.4555 11.9003 21.574C11.6151 21.6926 11.3089 21.7525 11.0001 21.7501ZM3.52007 13.1201C3.94164 13.5728 4.18651 14.162 4.21006 14.7802V16.9401C4.21006 17.1656 4.29962 17.3817 4.45902 17.5411C4.61843 17.7005 4.83463 17.7901 5.06007 17.7901H7.22007C7.83823 17.8137 8.42735 18.0585 8.88007 18.4801L10.4001 20.0001C10.5618 20.1542 10.7767 20.2401 11.0001 20.2401C11.2235 20.2401 11.4383 20.1542 11.6001 20.0001L13.1201 18.4801C13.5728 18.0585 14.1619 17.8137 14.7801 17.7901H16.9401C17.1655 17.7901 17.3817 17.7005 17.5411 17.5411C17.7005 17.3817 17.7901 17.1656 17.7901 16.9401V14.7802C17.8136 14.162 18.0585 13.5728 18.4801 13.1201L20.0001 11.6001C20.0799 11.5219 20.1433 11.4286 20.1866 11.3256C20.2299 11.2225 20.2522 11.1119 20.2522 11.0001C20.2522 10.8884 20.2299 10.7777 20.1866 10.6747C20.1433 10.5717 20.0799 10.4784 20.0001 10.4001L18.4801 8.88013C18.0585 8.42741 17.8136 7.83825 17.7901 7.22009V5.06012C17.7901 4.83469 17.7005 4.61851 17.5411 4.45911C17.3817 4.2997 17.1655 4.21014 16.9401 4.21014H14.7801C14.1619 4.18659 13.5728 3.94171 13.1201 3.52014L11.6001 2.00012C11.4383 1.84606 11.2235 1.76013 11.0001 1.76013C10.7767 1.76013 10.5618 1.84606 10.4001 2.00012L8.88007 3.52014C8.42735 3.94171 7.83823 4.18659 7.22007 4.21014H5.06007C4.83463 4.21014 4.61843 4.2997 4.45902 4.45911C4.29962 4.61851 4.21006 4.83469 4.21006 5.06012V7.22009C4.18651 7.83825 3.94164 8.42741 3.52007 8.88013L2.00007 10.4001C1.8413 10.5595 1.75214 10.7752 1.75214 11.0001C1.75214 11.225 1.8413 11.4408 2.00007 11.6001L3.52007 13.1201Z" fill="#9197B3"/>
<path d="M14 15.0001C13.8022 15.0001 13.6089 14.9415 13.4444 14.8316C13.28 14.7217 13.1518 14.5655 13.0761 14.3828C13.0004 14.2001 12.9806 13.999 13.0192 13.805C13.0578 13.6111 13.153 13.4329 13.2929 13.293C13.4327 13.1532 13.6109 13.0579 13.8049 13.0193C13.9989 12.9808 14.2 13.0005 14.3827 13.0762C14.5654 13.1519 14.7216 13.2801 14.8315 13.4446C14.9414 13.609 15 13.8023 15 14.0001C15 14.2653 14.8946 14.5197 14.7071 14.7072C14.5196 14.8947 14.2652 15.0001 14 15.0001Z" fill="#9197B3"/>
<path d="M8 9.00012C7.80222 9.00012 7.60888 8.94148 7.44443 8.8316C7.27998 8.72172 7.15181 8.56553 7.07612 8.38281C7.00043 8.20008 6.98063 7.99903 7.01921 7.80505C7.0578 7.61107 7.15304 7.43288 7.29289 7.29302C7.43275 7.15317 7.61093 7.05793 7.80491 7.01934C7.99889 6.98076 8.19996 7.00054 8.38268 7.07623C8.56541 7.15192 8.72159 7.28013 8.83147 7.44457C8.94135 7.60902 9 7.80234 9 8.00012C9 8.26533 8.89464 8.51967 8.70711 8.70721C8.51957 8.89475 8.26522 9.00012 8 9.00012Z" fill="#9197B3"/>
<path d="M7.99983 14.7501C7.90129 14.7506 7.80365 14.7314 7.71264 14.6936C7.62162 14.6558 7.53907 14.6003 7.46983 14.5301C7.32938 14.3895 7.25049 14.1989 7.25049 14.0001C7.25049 13.8014 7.32938 13.6107 7.46983 13.4701L13.4698 7.47009C13.612 7.33761 13.8 7.26549 13.9944 7.26892C14.1887 7.27234 14.374 7.35111 14.5115 7.48852C14.6489 7.62593 14.7276 7.81131 14.731 8.00561C14.7344 8.19991 14.6623 8.38797 14.5298 8.53015L8.52983 14.5301C8.46058 14.6003 8.37803 14.6558 8.28702 14.6936C8.19601 14.7314 8.09837 14.7506 7.99983 14.7501Z" fill="#9197B3"/>
</svg>
