<svg width="39" height="38" viewBox="0 0 39 38" fill="none" xmlns="http://www.w3.org/2000/svg">
<path d="M33.8199 17.69L38.13 13.8C37.35 11.92 37.35 11.9199 36.58 10.0399L30.77 10.33L28.51 8.06996L28.8 2.25995L25.04 0.709961L21.15 5.01996H17.9399L14.05 0.709961L10.29 2.25995L10.58 8.06996L8.31995 10.33L2.51001 10.0399C1.74001 11.9199 1.72996 11.92 0.959961 13.8L5.27002 17.69V20.8999L0.959961 24.7899C1.72996 26.6699 1.74001 26.67 2.51001 28.55L8.31995 28.2599L10.58 30.52L10.29 36.33L14.05 37.88L17.9399 33.57H21.15L25.04 37.88L28.8 36.33L28.51 30.52L30.77 28.2599L36.58 28.55C37.35 26.67 37.35 26.6699 38.13 24.7899L33.8199 20.8999V17.69ZM19.54 29.5C17.5207 29.5 15.5467 28.9012 13.8677 27.7793C12.1887 26.6574 10.8799 25.0628 10.1072 23.1972C9.33441 21.3315 9.13217 19.2786 9.52612 17.2981C9.92008 15.3175 10.8925 13.4983 12.3204 12.0704C13.7483 10.6425 15.5675 9.67009 17.5481 9.27614C19.5286 8.88218 21.5815 9.08438 23.4471 9.85715C25.3128 10.6299 26.9074 11.9386 28.0293 13.6176C29.1512 15.2966 29.75 17.2706 29.75 19.2899C29.75 21.9978 28.6743 24.5948 26.7595 26.5095C24.8448 28.4243 22.2479 29.5 19.54 29.5Z" fill="#9197B3"/>
<path d="M19.5399 24.4899C22.4118 24.4899 24.7399 22.1617 24.7399 19.2898C24.7399 16.418 22.4118 14.0898 19.5399 14.0898C16.668 14.0898 14.3398 16.418 14.3398 19.2898C14.3398 22.1617 16.668 24.4899 19.5399 24.4899Z" fill="#9197B3"/>
</svg>
