<svg width="24" height="23" viewBox="0 0 24 23" fill="none" xmlns="http://www.w3.org/2000/svg">
<path d="M10.1299 9.99996C9.20577 9.21662 8.03123 8.79082 6.81982 8.79995C5.9143 8.80049 5.02478 9.0384 4.23987 9.48995L4.05994 9.60995C3.87064 9.72185 3.69305 9.85252 3.52991 9.99996C3.09228 10.3692 2.739 10.8282 2.49402 11.3457C2.24904 11.8633 2.11803 12.4274 2.10986 13V16V18.2199C2.25076 19.3766 2.81018 20.4417 3.6825 21.2142C4.55481 21.9867 5.67965 22.4132 6.84485 22.4132C8.01005 22.4132 9.13501 21.9867 10.0073 21.2142C10.8796 20.4417 11.4389 19.3766 11.5798 18.2199V16V13C11.568 12.4251 11.4324 11.8595 11.1821 11.3418C10.9319 10.8241 10.573 10.3664 10.1299 9.99996ZM3.78992 12.52C3.80544 12.4618 3.82544 12.4049 3.84985 12.3499C3.84985 12.2499 3.91984 12.1399 3.95984 12.0399L4.08984 11.83C4.13984 11.76 4.17987 11.6799 4.23987 11.6099C4.3152 11.5159 4.39887 11.4289 4.48987 11.3499L4.59985 11.2299C4.72339 11.1309 4.85372 11.0408 4.98987 10.96L5.07983 10.9C5.18818 10.8366 5.30206 10.7831 5.41992 10.74C5.48465 10.7058 5.5514 10.6758 5.61987 10.65C5.99544 10.5164 6.39131 10.4487 6.78992 10.45C7.60276 10.4367 8.39235 10.7212 9.00989 11.25C9.27626 11.4694 9.49191 11.7439 9.64209 12.0546C9.79227 12.3654 9.87343 12.7049 9.87988 13.0499C9.88108 13.4244 9.77709 13.7917 9.57983 14.1099C9.2656 14.5499 8.84472 14.9028 8.35669 15.1354C7.86866 15.368 7.32956 15.4729 6.78992 15.44C6.24822 15.4697 5.70774 15.3626 5.21838 15.1284C4.72902 14.8942 4.3065 14.5405 3.98987 14.0999C3.7991 13.7757 3.69891 13.4062 3.69983 13.03C3.71078 12.867 3.74108 12.7058 3.78992 12.5499V12.52ZM9.90991 16.1099C9.84991 17.4299 8.55982 18.4199 6.81982 18.4199C5.07982 18.4199 3.81987 17.4199 3.73987 16.1099C4.6494 16.7295 5.72435 17.0608 6.82483 17.0608C7.92531 17.0608 9.00038 16.7295 9.90991 16.1099ZM6.81982 20.84C6.25978 20.8591 5.70468 20.7294 5.21106 20.4642C4.71744 20.1989 4.30301 19.8076 4.00989 19.33H4.06982C4.23674 19.4318 4.41051 19.522 4.58984 19.5999L4.69983 19.65C4.87983 19.7167 5.05987 19.7766 5.23987 19.83H5.33984C5.55066 19.8849 5.76432 19.9283 5.97986 19.96H6.11987C6.35186 19.9919 6.58565 20.0086 6.81982 20.01C7.05401 20.009 7.28794 19.9923 7.5199 19.96H7.66992C7.88546 19.9283 8.09912 19.8849 8.30994 19.83H8.3999C8.58653 19.7805 8.77009 19.7204 8.94983 19.65L9.04993 19.5999C9.23249 19.522 9.40947 19.4319 9.57983 19.33H9.63989C9.3466 19.8118 8.93147 20.2078 8.4364 20.4782C7.94133 20.7485 7.38374 20.8837 6.81982 20.87V20.84Z" fill="#0F5FC2"/>
<path d="M22.76 7.87992V6.87992C22.8498 5.35215 22.3434 3.84914 21.3474 2.68717C20.3515 1.5252 18.9436 0.794908 17.4201 0.64994C17.0887 0.605379 16.7544 0.585328 16.4201 0.589942H6.57998C6.24502 0.589152 5.91056 0.615865 5.57998 0.669898C4.06635 0.822081 2.67008 1.55305 1.68252 2.71018C0.694953 3.86731 0.192491 5.36118 0.280053 6.87992V9.06992C0.280053 9.2874 0.366385 9.49598 0.520165 9.64976C0.673945 9.80354 0.882522 9.88993 1.1 9.88993C1.31748 9.88993 1.52605 9.80354 1.67983 9.64976C1.83361 9.49598 1.92007 9.2874 1.92007 9.06992V6.87992C1.8365 5.75801 2.19594 4.64802 2.92129 3.78806C3.64664 2.92811 4.68014 2.38672 5.80007 2.27994C6.05552 2.24802 6.31254 2.23128 6.56997 2.2299H16.4101C16.6497 2.21079 16.8904 2.21079 17.13 2.2299C18.2608 2.32429 19.3084 2.86185 20.0446 3.72538C20.7807 4.58891 21.1458 5.70846 21.0601 6.83994V7.59989H19.61C18.8486 7.59998 18.1159 7.88954 17.5601 8.40989L17.46 8.48991C17.1383 8.80394 16.8914 9.18628 16.7373 9.60862C16.5833 10.031 16.526 10.4825 16.57 10.9299C16.6547 11.7094 17.0281 12.429 17.6166 12.9471C18.2051 13.4653 18.9661 13.7445 19.75 13.7299H21.07V14.4999C21.1131 15.1212 21.0223 15.7445 20.8037 16.3277C20.5852 16.9109 20.2439 17.4403 19.803 17.8802C19.3621 18.3201 18.8321 18.6603 18.2484 18.8776C17.6648 19.0949 17.0413 19.1844 16.4201 19.1399H13.69C13.4868 19.1623 13.2991 19.2589 13.1627 19.4111C13.0264 19.5633 12.951 19.7606 12.951 19.9649C12.951 20.1693 13.0264 20.3665 13.1627 20.5187C13.2991 20.6709 13.4868 20.7675 13.69 20.7899H16.4201C17.2571 20.8314 18.0934 20.6972 18.8754 20.3958C19.6573 20.0944 20.3674 19.6325 20.96 19.04C21.5526 18.4474 22.0145 17.7372 22.3159 16.9553C22.6173 16.1734 22.7515 15.3369 22.71 14.4999V13.4999C23.0389 13.3433 23.3167 13.0967 23.5114 12.7888C23.706 12.4809 23.8096 12.1242 23.8101 11.7599V9.50992C23.7934 9.17 23.6876 8.84046 23.5033 8.55436C23.319 8.26825 23.0626 8.03564 22.76 7.87992ZM19.76 12.1699C19.3883 12.1809 19.0255 12.0543 18.7414 11.8144C18.4572 11.5745 18.2716 11.2382 18.22 10.8699C18.1984 10.6604 18.2251 10.4488 18.2979 10.2512C18.3707 10.0536 18.4877 9.87528 18.64 9.7299C18.7703 9.59816 18.9264 9.4947 19.0984 9.42588C19.2705 9.35706 19.4548 9.32441 19.64 9.32993H21.88C21.9589 9.32977 22.0348 9.35967 22.0924 9.41355C22.15 9.46743 22.1849 9.54121 22.19 9.61991V11.8699C22.1901 11.9461 22.1614 12.0196 22.1094 12.0753C22.0574 12.131 21.9861 12.1648 21.9101 12.1699H19.76Z" fill="#0F5FC2"/>
</svg>
