<svg width="22" height="21" viewBox="0 0 22 21" fill="none" xmlns="http://www.w3.org/2000/svg">
<path d="M9.75022 14.8601V16.8601C9.62929 17.7222 9.20089 18.5116 8.54395 19.0828C7.88701 19.654 7.04577 19.9687 6.17522 19.9687C5.30466 19.9687 4.46343 19.654 3.80648 19.0828C3.14954 18.5116 2.72115 17.7222 2.60022 16.8601V14.8601M9.75022 14.8601C9.75022 16.5701 8.16022 17.8001 6.18022 17.8001M9.75022 14.8601V12.1101M9.75022 14.8601C9.75022 16.5801 8.15022 17.8001 6.18022 17.8001M2.60022 14.8601C2.60022 16.5801 4.20022 17.8001 6.18022 17.8001M2.60022 14.8601C2.60022 16.5701 4.21022 17.8001 6.18022 17.8001M2.60022 14.8601V12.1101C2.66684 11.2246 3.08027 10.4012 3.75063 9.81887C4.42099 9.23651 5.29411 8.94227 6.18022 9.00011C7.10521 8.99133 8.00274 9.31416 8.71022 9.91012C9.03107 10.1809 9.28998 10.5175 9.46941 10.897C9.64884 11.2766 9.74461 11.6903 9.75022 12.1101M9.75022 12.1101C9.75041 12.5897 9.61896 13.0601 9.37022 13.4701C8.99763 13.9669 8.51449 14.3701 7.95907 14.6478C7.40365 14.9255 6.7912 15.0701 6.17022 15.0701C5.54924 15.0701 4.93678 14.9255 4.38136 14.6478C3.82594 14.3701 3.34281 13.9669 2.97022 13.4701C2.72147 13.0601 2.59003 12.5897 2.59022 12.1101C2.59035 11.6947 2.6797 11.2843 2.85222 10.9064C3.02475 10.5286 3.27642 10.1923 3.59022 9.92013C4.29541 9.32023 5.19447 8.99685 6.12022 9.01013C7.0452 9.00135 7.94274 9.32418 8.65022 9.92013C8.98545 10.1799 9.25825 10.5114 9.4486 10.8903C9.63895 11.2693 9.74201 11.6861 9.75022 12.1101ZM1.00022 8.50011V6.50011C0.919134 5.29351 1.31131 4.10279 2.09355 3.18053C2.87579 2.25827 3.98656 1.67702 5.19022 1.56011C5.45829 1.5195 5.72908 1.49944 6.00022 1.50011H15.0002C15.2512 1.49615 15.502 1.51287 15.7502 1.5501C16.9655 1.65477 18.0914 2.23182 18.886 3.15731C19.6806 4.0828 20.0806 5.28295 20.0002 6.50011V8.00011H17.9202C17.6399 8.00731 17.3639 8.07169 17.1093 8.18929C16.8547 8.30689 16.6268 8.47526 16.4396 8.68404C16.2523 8.89282 16.1097 9.13764 16.0204 9.40349C15.9311 9.66935 15.897 9.95063 15.9202 10.2301C15.9939 10.7313 16.2438 11.1897 16.625 11.5233C17.0061 11.8568 17.4937 12.0436 18.0002 12.0501H20.0002V13.5001C20.0411 14.1674 19.9398 14.8357 19.703 15.4609C19.4662 16.0861 19.0993 16.6538 18.6266 17.1265C18.1539 17.5992 17.5862 17.9661 16.961 18.2029C16.3358 18.4397 15.6675 18.541 15.0002 18.5001H12.5002M21.0002 9.00013V11.0001C21.0002 11.2654 20.8949 11.5197 20.7073 11.7072C20.5198 11.8948 20.2654 12.0001 20.0002 12.0001H18.0002C17.4725 12.0115 16.9593 11.8265 16.5602 11.481C16.1611 11.1355 15.9045 10.6541 15.8402 10.1301C15.817 9.85065 15.8511 9.56936 15.9404 9.30351C16.0297 9.03766 16.1723 8.79284 16.3596 8.58406C16.5468 8.37527 16.7747 8.20691 17.0293 8.08931C17.2839 7.97171 17.5599 7.90733 17.8402 7.90013H20.0002C20.1404 7.89943 20.2792 7.92821 20.4075 7.9846C20.5358 8.04099 20.6509 8.12374 20.7452 8.22746C20.8395 8.33118 20.9109 8.45357 20.9548 8.58668C20.9988 8.7198 21.0142 8.86066 21.0002 9.00013Z" stroke="#9197B3" stroke-width="1.5" stroke-linecap="round" stroke-linejoin="round"/>
</svg>
